<mxfile host="app.diagrams.net" agent="Mozilla/5.0 (Windows NT 10.0; Win64; x64) AppleWebKit/537.36 (KHTML, like Gecko) Chrome/137.0.0.0 Safari/537.36 Edg/137.0.0.0" version="27.1.6">
  <diagram name="Page-1" id="yAkueWH8tclE_65RSBvn">
    <mxGraphModel dx="2194" dy="857" grid="1" gridSize="10" guides="1" tooltips="1" connect="1" arrows="1" fold="1" page="1" pageScale="1" pageWidth="1100" pageHeight="850" math="0" shadow="0">
      <root>
        <mxCell id="0" />
        <mxCell id="1" parent="0" />
        <mxCell id="US-OKdlzFDQY7FfolMQk-1" value="" style="rounded=1;whiteSpace=wrap;html=1;movable=1;resizable=1;rotatable=1;deletable=1;editable=1;locked=0;connectable=1;fillStyle=dashed;fillColor=#bac8d3;strokeColor=#23445d;" vertex="1" parent="1">
          <mxGeometry x="610" y="7.5" width="460" height="530" as="geometry" />
        </mxCell>
        <mxCell id="GztURZSVZ-j2a2Ba5-2v-1" value="" style="rounded=1;whiteSpace=wrap;html=1;movable=1;resizable=1;rotatable=1;deletable=1;editable=1;locked=0;connectable=1;" parent="1" vertex="1">
          <mxGeometry x="20" y="10" width="580" height="530" as="geometry" />
        </mxCell>
        <mxCell id="uHRIR_JINjC9fajswvWd-5" value="" style="rounded=1;whiteSpace=wrap;html=1;sketch=1;curveFitting=1;jiggle=2;" parent="1" vertex="1">
          <mxGeometry x="10" y="560" width="830" height="260" as="geometry" />
        </mxCell>
        <mxCell id="sH69yQ1ZhXcAEsHfrU8D-1" value="" style="rounded=0;whiteSpace=wrap;html=1;movable=1;resizable=1;rotatable=1;deletable=1;editable=1;locked=0;connectable=1;" parent="1" vertex="1">
          <mxGeometry x="80" y="160" width="510" height="270" as="geometry" />
        </mxCell>
        <mxCell id="mBHjW366EDlgSjZvG0Kb-1" value="&lt;div&gt;&lt;font face=&quot;Lucida Console&quot;&gt;Structural 3.01&lt;/font&gt;&lt;/div&gt;" style="text;html=1;align=center;verticalAlign=middle;whiteSpace=wrap;rounded=0;fontStyle=5;fontSize=17;" parent="1" vertex="1">
          <mxGeometry x="260" y="560" width="330" height="70" as="geometry" />
        </mxCell>
        <mxCell id="uHRIR_JINjC9fajswvWd-6" value="&lt;pre&gt;&lt;font style=&quot;font-size: 19px;&quot;&gt;MAIN SLAB&lt;/font&gt;&lt;/pre&gt;" style="text;html=1;align=center;verticalAlign=middle;whiteSpace=wrap;rounded=0;fontStyle=4" parent="1" vertex="1">
          <mxGeometry x="290" y="10" width="90" height="45" as="geometry" />
        </mxCell>
        <mxCell id="uHRIR_JINjC9fajswvWd-14" value="&lt;pre&gt;&lt;b style=&quot;&quot;&gt;&lt;u style=&quot;&quot;&gt;&lt;font face=&quot;Lucida Console&quot; style=&quot;font-size: 17px;&quot;&gt;** NOT TO SCALE **&lt;/font&gt;&lt;/u&gt;&lt;/b&gt;&lt;/pre&gt;" style="text;strokeColor=none;fillColor=none;align=center;verticalAlign=middle;spacingLeft=4;spacingRight=4;overflow=hidden;points=[[0,0.5],[1,0.5]];portConstraint=eastwest;rotatable=0;whiteSpace=wrap;html=1;" parent="1" vertex="1">
          <mxGeometry x="285" y="780" width="280" height="40" as="geometry" />
        </mxCell>
        <mxCell id="vKAQ_r-t-Htgs6Gfas-m-2" value="&lt;u&gt;&lt;font face=&quot;Lucida Console&quot; style=&quot;font-size: 18px;&quot;&gt;CMU POOL&lt;/font&gt;&lt;/u&gt;&lt;div style=&quot;text-align: left;&quot;&gt;&lt;span style=&quot;font-size: 10px;&quot;&gt;&lt;font face=&quot;Lucida Console&quot;&gt;Cruz Wootten&lt;/font&gt;&lt;/span&gt;&lt;/div&gt;&lt;div style=&quot;text-align: left;&quot;&gt;&lt;font face=&quot;Lucida Console&quot;&gt;&lt;span style=&quot;font-size: 10px; background-color: transparent; color: light-dark(rgb(0, 0, 0), rgb(255, 255, 255));&quot;&gt;17575 Parrot Drive&amp;nbsp;&lt;/span&gt;&lt;br&gt;&lt;span style=&quot;font-size: 10px; background-color: transparent; color: light-dark(rgb(0, 0, 0), rgb(255, 255, 255));&quot;&gt;Reno, Nevada&lt;/span&gt;&lt;/font&gt;&lt;/div&gt;&lt;div style=&quot;text-align: left;&quot;&gt;&lt;span style=&quot;background-color: transparent; color: light-dark(rgb(0, 0, 0), rgb(255, 255, 255)); font-size: 10px;&quot;&gt;&lt;font face=&quot;Lucida Console&quot;&gt;775.501.4398&lt;/font&gt;&lt;/span&gt;&lt;/div&gt;" style="swimlane;whiteSpace=wrap;html=1;startSize=100;align=center;" parent="1" vertex="1">
          <mxGeometry x="890" y="640" width="200" height="200" as="geometry" />
        </mxCell>
        <mxCell id="vKAQ_r-t-Htgs6Gfas-m-3" value="&lt;font style=&quot;font-size: 31px;&quot;&gt;&amp;nbsp;S3.01&lt;/font&gt;" style="text;html=1;align=left;verticalAlign=middle;whiteSpace=wrap;rounded=0;" parent="vKAQ_r-t-Htgs6Gfas-m-2" vertex="1">
          <mxGeometry y="100" width="200" height="100" as="geometry" />
        </mxCell>
        <mxCell id="vKAQ_r-t-Htgs6Gfas-m-4" value="Structural" style="text;html=1;align=center;verticalAlign=middle;whiteSpace=wrap;rounded=0;" parent="vKAQ_r-t-Htgs6Gfas-m-2" vertex="1">
          <mxGeometry x="10" y="110" width="70" height="30" as="geometry" />
        </mxCell>
        <mxCell id="vKAQ_r-t-Htgs6Gfas-m-5" value="" style="endArrow=none;html=1;rounded=0;exitX=0.5;exitY=1;exitDx=0;exitDy=0;" parent="vKAQ_r-t-Htgs6Gfas-m-2" source="vKAQ_r-t-Htgs6Gfas-m-3" edge="1">
          <mxGeometry width="50" height="50" relative="1" as="geometry">
            <mxPoint x="50" y="150" as="sourcePoint" />
            <mxPoint x="100" y="100" as="targetPoint" />
          </mxGeometry>
        </mxCell>
        <mxCell id="vKAQ_r-t-Htgs6Gfas-m-6" value="&lt;div&gt;&lt;font style=&quot;font-size: 13px;&quot;&gt;Drawing&lt;/font&gt;&lt;/div&gt;&lt;div&gt;&lt;font style=&quot;font-size: 13px;&quot;&gt;Page&lt;/font&gt;&lt;/div&gt;&lt;div&gt;&lt;span style=&quot;font-size: 24px; background-color: transparent; color: light-dark(rgb(0, 0, 0), rgb(255, 255, 255));&quot;&gt;5 / X&lt;/span&gt;&lt;/div&gt;" style="text;html=1;align=center;verticalAlign=middle;whiteSpace=wrap;rounded=0;fillColor=default;" parent="1" vertex="1">
          <mxGeometry x="990" y="740" width="100" height="100" as="geometry" />
        </mxCell>
        <mxCell id="vKAQ_r-t-Htgs6Gfas-m-18" value="&lt;pre&gt;* All slabs to use #4 Rebar&lt;/pre&gt;" style="text;html=1;align=center;verticalAlign=middle;whiteSpace=wrap;rounded=0;strokeColor=none;" parent="1" vertex="1">
          <mxGeometry x="45" y="610" width="240" height="30" as="geometry" />
        </mxCell>
        <mxCell id="LL6v63Wx8klDNPUl_Ktk-3" value="" style="endArrow=none;dashed=1;html=1;rounded=0;movable=0;resizable=0;rotatable=0;deletable=0;editable=0;locked=1;connectable=0;" parent="1" edge="1">
          <mxGeometry width="50" height="50" relative="1" as="geometry">
            <mxPoint x="100" y="420" as="sourcePoint" />
            <mxPoint x="100" y="170" as="targetPoint" />
          </mxGeometry>
        </mxCell>
        <mxCell id="LL6v63Wx8klDNPUl_Ktk-4" value="" style="endArrow=none;dashed=1;html=1;rounded=0;movable=0;resizable=0;rotatable=0;deletable=0;editable=0;locked=1;connectable=0;" parent="1" edge="1">
          <mxGeometry width="50" height="50" relative="1" as="geometry">
            <mxPoint x="120" y="420" as="sourcePoint" />
            <mxPoint x="120" y="170" as="targetPoint" />
          </mxGeometry>
        </mxCell>
        <mxCell id="LL6v63Wx8klDNPUl_Ktk-5" value="" style="endArrow=none;dashed=1;html=1;rounded=0;movable=0;resizable=0;rotatable=0;deletable=0;editable=0;locked=1;connectable=0;" parent="1" edge="1">
          <mxGeometry width="50" height="50" relative="1" as="geometry">
            <mxPoint x="180" y="420" as="sourcePoint" />
            <mxPoint x="180" y="170" as="targetPoint" />
          </mxGeometry>
        </mxCell>
        <mxCell id="LL6v63Wx8klDNPUl_Ktk-6" value="" style="endArrow=none;dashed=1;html=1;rounded=0;movable=0;resizable=0;rotatable=0;deletable=0;editable=0;locked=1;connectable=0;" parent="1" edge="1">
          <mxGeometry width="50" height="50" relative="1" as="geometry">
            <mxPoint x="160" y="420" as="sourcePoint" />
            <mxPoint x="160" y="170" as="targetPoint" />
          </mxGeometry>
        </mxCell>
        <mxCell id="LL6v63Wx8klDNPUl_Ktk-7" value="" style="endArrow=none;dashed=1;html=1;rounded=0;movable=0;resizable=0;rotatable=0;deletable=0;editable=0;locked=1;connectable=0;" parent="1" edge="1">
          <mxGeometry width="50" height="50" relative="1" as="geometry">
            <mxPoint x="140" y="420" as="sourcePoint" />
            <mxPoint x="140" y="170" as="targetPoint" />
          </mxGeometry>
        </mxCell>
        <mxCell id="LL6v63Wx8klDNPUl_Ktk-8" value="" style="endArrow=none;dashed=1;html=1;rounded=0;movable=0;resizable=0;rotatable=0;deletable=0;editable=0;locked=1;connectable=0;" parent="1" edge="1">
          <mxGeometry width="50" height="50" relative="1" as="geometry">
            <mxPoint x="232" y="420" as="sourcePoint" />
            <mxPoint x="231" y="170" as="targetPoint" />
          </mxGeometry>
        </mxCell>
        <mxCell id="LL6v63Wx8klDNPUl_Ktk-9" value="" style="endArrow=none;dashed=1;html=1;rounded=0;movable=1;spacingLeft=0;sourcePerimeterSpacing=-8;resizable=1;rotatable=1;deletable=1;editable=1;locked=0;connectable=1;" parent="1" edge="1">
          <mxGeometry width="50" height="50" relative="1" as="geometry">
            <mxPoint x="217" y="420" as="sourcePoint" />
            <mxPoint x="216" y="170" as="targetPoint" />
          </mxGeometry>
        </mxCell>
        <mxCell id="LL6v63Wx8klDNPUl_Ktk-10" value="" style="endArrow=none;dashed=1;html=1;rounded=0;movable=0;resizable=0;rotatable=0;deletable=0;editable=0;locked=1;connectable=0;" parent="1" edge="1">
          <mxGeometry width="50" height="50" relative="1" as="geometry">
            <mxPoint x="199" y="330" as="sourcePoint" />
            <mxPoint x="199" y="170" as="targetPoint" />
          </mxGeometry>
        </mxCell>
        <mxCell id="LL6v63Wx8klDNPUl_Ktk-11" value="" style="endArrow=none;dashed=1;html=1;rounded=0;movable=0;resizable=0;rotatable=0;deletable=0;editable=0;locked=1;connectable=0;" parent="1" edge="1">
          <mxGeometry width="50" height="50" relative="1" as="geometry">
            <mxPoint x="290" y="420" as="sourcePoint" />
            <mxPoint x="290" y="170" as="targetPoint" />
          </mxGeometry>
        </mxCell>
        <mxCell id="LL6v63Wx8klDNPUl_Ktk-12" value="" style="endArrow=none;dashed=1;html=1;rounded=0;movable=0;resizable=0;rotatable=0;deletable=0;editable=0;locked=1;connectable=0;" parent="1" edge="1">
          <mxGeometry width="50" height="50" relative="1" as="geometry">
            <mxPoint x="270" y="420" as="sourcePoint" />
            <mxPoint x="270" y="170" as="targetPoint" />
          </mxGeometry>
        </mxCell>
        <mxCell id="LL6v63Wx8klDNPUl_Ktk-13" value="" style="endArrow=none;dashed=1;html=1;rounded=0;movable=0;resizable=0;rotatable=0;deletable=0;editable=0;locked=1;connectable=0;" parent="1" edge="1">
          <mxGeometry width="50" height="50" relative="1" as="geometry">
            <mxPoint x="250" y="420" as="sourcePoint" />
            <mxPoint x="250" y="170" as="targetPoint" />
          </mxGeometry>
        </mxCell>
        <mxCell id="LL6v63Wx8klDNPUl_Ktk-14" value="" style="endArrow=none;dashed=1;html=1;rounded=0;movable=0;resizable=0;rotatable=0;deletable=0;editable=0;locked=1;connectable=0;" parent="1" edge="1">
          <mxGeometry width="50" height="50" relative="1" as="geometry">
            <mxPoint x="350" y="420" as="sourcePoint" />
            <mxPoint x="350" y="170" as="targetPoint" />
          </mxGeometry>
        </mxCell>
        <mxCell id="LL6v63Wx8klDNPUl_Ktk-15" value="" style="endArrow=none;dashed=1;html=1;rounded=0;movable=0;resizable=0;rotatable=0;deletable=0;editable=0;locked=1;connectable=0;" parent="1" edge="1">
          <mxGeometry width="50" height="50" relative="1" as="geometry">
            <mxPoint x="330" y="420" as="sourcePoint" />
            <mxPoint x="330" y="170" as="targetPoint" />
          </mxGeometry>
        </mxCell>
        <mxCell id="LL6v63Wx8klDNPUl_Ktk-16" value="" style="endArrow=none;dashed=1;html=1;rounded=0;movable=0;sourcePerimeterSpacing=10;targetPerimeterSpacing=4;resizable=0;rotatable=0;deletable=0;editable=0;locked=1;connectable=0;" parent="1" edge="1">
          <mxGeometry width="50" height="50" relative="1" as="geometry">
            <mxPoint x="310" y="420" as="sourcePoint" />
            <mxPoint x="310" y="173" as="targetPoint" />
          </mxGeometry>
        </mxCell>
        <mxCell id="LL6v63Wx8klDNPUl_Ktk-17" value="" style="endArrow=none;dashed=1;html=1;rounded=0;movable=0;resizable=0;rotatable=0;deletable=0;editable=0;locked=1;connectable=0;" parent="1" edge="1">
          <mxGeometry width="50" height="50" relative="1" as="geometry">
            <mxPoint x="410" y="420" as="sourcePoint" />
            <mxPoint x="410" y="170" as="targetPoint" />
          </mxGeometry>
        </mxCell>
        <mxCell id="LL6v63Wx8klDNPUl_Ktk-18" value="" style="endArrow=none;dashed=1;html=1;rounded=0;movable=0;resizable=0;rotatable=0;deletable=0;editable=0;locked=1;connectable=0;" parent="1" edge="1">
          <mxGeometry width="50" height="50" relative="1" as="geometry">
            <mxPoint x="390" y="420" as="sourcePoint" />
            <mxPoint x="390" y="170" as="targetPoint" />
          </mxGeometry>
        </mxCell>
        <mxCell id="LL6v63Wx8klDNPUl_Ktk-19" value="" style="endArrow=none;dashed=1;html=1;rounded=0;movable=0;resizable=0;rotatable=0;deletable=0;editable=0;locked=1;connectable=0;" parent="1" edge="1">
          <mxGeometry width="50" height="50" relative="1" as="geometry">
            <mxPoint x="370" y="420" as="sourcePoint" />
            <mxPoint x="370" y="170" as="targetPoint" />
          </mxGeometry>
        </mxCell>
        <mxCell id="LL6v63Wx8klDNPUl_Ktk-20" value="" style="endArrow=none;dashed=1;html=1;rounded=0;movable=0;resizable=0;rotatable=0;deletable=0;editable=0;locked=1;connectable=0;" parent="1" edge="1">
          <mxGeometry width="50" height="50" relative="1" as="geometry">
            <mxPoint x="470" y="420" as="sourcePoint" />
            <mxPoint x="470" y="170" as="targetPoint" />
          </mxGeometry>
        </mxCell>
        <mxCell id="LL6v63Wx8klDNPUl_Ktk-21" value="" style="endArrow=none;dashed=1;html=1;rounded=0;movable=0;resizable=0;rotatable=0;deletable=0;editable=0;locked=1;connectable=0;" parent="1" edge="1">
          <mxGeometry width="50" height="50" relative="1" as="geometry">
            <mxPoint x="450" y="420" as="sourcePoint" />
            <mxPoint x="450" y="170" as="targetPoint" />
          </mxGeometry>
        </mxCell>
        <mxCell id="LL6v63Wx8klDNPUl_Ktk-22" value="" style="endArrow=none;dashed=1;html=1;rounded=0;movable=0;resizable=0;rotatable=0;deletable=0;editable=0;locked=1;connectable=0;" parent="1" edge="1">
          <mxGeometry width="50" height="50" relative="1" as="geometry">
            <mxPoint x="430" y="420" as="sourcePoint" />
            <mxPoint x="430" y="170" as="targetPoint" />
          </mxGeometry>
        </mxCell>
        <mxCell id="LL6v63Wx8klDNPUl_Ktk-23" value="" style="endArrow=none;dashed=1;html=1;rounded=0;movable=0;resizable=0;rotatable=0;deletable=0;editable=0;locked=1;connectable=0;" parent="1" edge="1">
          <mxGeometry width="50" height="50" relative="1" as="geometry">
            <mxPoint x="530" y="420" as="sourcePoint" />
            <mxPoint x="530" y="170" as="targetPoint" />
          </mxGeometry>
        </mxCell>
        <mxCell id="LL6v63Wx8klDNPUl_Ktk-24" value="" style="endArrow=none;dashed=1;html=1;rounded=0;movable=0;resizable=0;rotatable=0;deletable=0;editable=0;locked=1;connectable=0;" parent="1" edge="1">
          <mxGeometry width="50" height="50" relative="1" as="geometry">
            <mxPoint x="510" y="420" as="sourcePoint" />
            <mxPoint x="510" y="170" as="targetPoint" />
          </mxGeometry>
        </mxCell>
        <mxCell id="LL6v63Wx8klDNPUl_Ktk-25" value="" style="endArrow=none;dashed=1;html=1;rounded=0;movable=0;resizable=0;rotatable=0;deletable=0;editable=0;locked=1;connectable=0;" parent="1" edge="1">
          <mxGeometry width="50" height="50" relative="1" as="geometry">
            <mxPoint x="490" y="420" as="sourcePoint" />
            <mxPoint x="490" y="170" as="targetPoint" />
          </mxGeometry>
        </mxCell>
        <mxCell id="LL6v63Wx8klDNPUl_Ktk-27" value="" style="endArrow=none;dashed=1;html=1;rounded=0;movable=0;resizable=0;rotatable=0;deletable=0;editable=0;locked=1;connectable=0;" parent="1" edge="1">
          <mxGeometry width="50" height="50" relative="1" as="geometry">
            <mxPoint x="570" y="420" as="sourcePoint" />
            <mxPoint x="570" y="170" as="targetPoint" />
          </mxGeometry>
        </mxCell>
        <mxCell id="LL6v63Wx8klDNPUl_Ktk-28" value="" style="endArrow=none;dashed=1;html=1;rounded=0;movable=0;resizable=0;rotatable=0;deletable=0;editable=0;locked=1;connectable=0;" parent="1" edge="1">
          <mxGeometry width="50" height="50" relative="1" as="geometry">
            <mxPoint x="550" y="420" as="sourcePoint" />
            <mxPoint x="550" y="170" as="targetPoint" />
          </mxGeometry>
        </mxCell>
        <mxCell id="LL6v63Wx8klDNPUl_Ktk-29" value="" style="endArrow=none;dashed=1;html=1;rounded=0;movable=0;resizable=0;rotatable=0;deletable=0;editable=0;locked=1;connectable=0;" parent="1" edge="1">
          <mxGeometry width="50" height="50" relative="1" as="geometry">
            <mxPoint x="585" y="400" as="sourcePoint" />
            <mxPoint x="85" y="400" as="targetPoint" />
          </mxGeometry>
        </mxCell>
        <mxCell id="LL6v63Wx8klDNPUl_Ktk-31" value="" style="endArrow=none;dashed=1;html=1;rounded=0;movable=0;resizable=0;rotatable=0;deletable=0;editable=0;locked=1;connectable=0;" parent="1" edge="1">
          <mxGeometry width="50" height="50" relative="1" as="geometry">
            <mxPoint x="585" y="380" as="sourcePoint" />
            <mxPoint x="85" y="380" as="targetPoint" />
          </mxGeometry>
        </mxCell>
        <mxCell id="LL6v63Wx8klDNPUl_Ktk-32" value="" style="endArrow=none;dashed=1;html=1;rounded=0;movable=0;resizable=0;rotatable=0;deletable=0;editable=0;locked=1;connectable=0;" parent="1" edge="1">
          <mxGeometry width="50" height="50" relative="1" as="geometry">
            <mxPoint x="585" y="360" as="sourcePoint" />
            <mxPoint x="85" y="360" as="targetPoint" />
          </mxGeometry>
        </mxCell>
        <mxCell id="LL6v63Wx8klDNPUl_Ktk-33" value="" style="endArrow=none;dashed=1;html=1;rounded=0;movable=0;resizable=0;rotatable=0;deletable=0;editable=0;locked=1;connectable=0;" parent="1" edge="1">
          <mxGeometry width="50" height="50" relative="1" as="geometry">
            <mxPoint x="585" y="340" as="sourcePoint" />
            <mxPoint x="85" y="340" as="targetPoint" />
          </mxGeometry>
        </mxCell>
        <mxCell id="LL6v63Wx8klDNPUl_Ktk-34" value="" style="endArrow=none;dashed=1;html=1;rounded=0;movable=0;resizable=0;rotatable=0;deletable=0;editable=0;locked=1;connectable=0;" parent="1" edge="1">
          <mxGeometry width="50" height="50" relative="1" as="geometry">
            <mxPoint x="585" y="320" as="sourcePoint" />
            <mxPoint x="85" y="320" as="targetPoint" />
          </mxGeometry>
        </mxCell>
        <mxCell id="LL6v63Wx8klDNPUl_Ktk-35" value="" style="endArrow=none;dashed=1;html=1;rounded=0;movable=0;resizable=0;rotatable=0;deletable=0;editable=0;locked=1;connectable=0;" parent="1" edge="1">
          <mxGeometry width="50" height="50" relative="1" as="geometry">
            <mxPoint x="180" y="300" as="sourcePoint" />
            <mxPoint x="85" y="300" as="targetPoint" />
          </mxGeometry>
        </mxCell>
        <mxCell id="LL6v63Wx8klDNPUl_Ktk-36" value="" style="endArrow=none;dashed=1;html=1;rounded=0;movable=0;resizable=0;rotatable=0;deletable=0;editable=0;locked=1;connectable=0;" parent="1" edge="1">
          <mxGeometry width="50" height="50" relative="1" as="geometry">
            <mxPoint x="580" y="279.5" as="sourcePoint" />
            <mxPoint x="80" y="279.5" as="targetPoint" />
          </mxGeometry>
        </mxCell>
        <mxCell id="LL6v63Wx8klDNPUl_Ktk-37" value="" style="endArrow=none;dashed=1;html=1;rounded=0;movable=1;resizable=1;rotatable=1;deletable=1;editable=1;locked=0;connectable=1;" parent="1" edge="1">
          <mxGeometry width="50" height="50" relative="1" as="geometry">
            <mxPoint x="580" y="260" as="sourcePoint" />
            <mxPoint x="80" y="260" as="targetPoint" />
          </mxGeometry>
        </mxCell>
        <mxCell id="LL6v63Wx8klDNPUl_Ktk-38" value="" style="endArrow=none;dashed=1;html=1;rounded=0;movable=0;resizable=0;rotatable=0;deletable=0;editable=0;locked=1;connectable=0;" parent="1" edge="1">
          <mxGeometry width="50" height="50" relative="1" as="geometry">
            <mxPoint x="580" y="240" as="sourcePoint" />
            <mxPoint x="80" y="240" as="targetPoint" />
          </mxGeometry>
        </mxCell>
        <mxCell id="LL6v63Wx8klDNPUl_Ktk-39" value="" style="endArrow=none;dashed=1;html=1;rounded=0;movable=0;resizable=0;rotatable=0;deletable=0;editable=0;locked=1;connectable=0;" parent="1" edge="1">
          <mxGeometry width="50" height="50" relative="1" as="geometry">
            <mxPoint x="580" y="220" as="sourcePoint" />
            <mxPoint x="80" y="220" as="targetPoint" />
          </mxGeometry>
        </mxCell>
        <mxCell id="LL6v63Wx8klDNPUl_Ktk-40" value="" style="endArrow=none;dashed=1;html=1;rounded=0;movable=1;resizable=1;rotatable=1;deletable=1;editable=1;locked=0;connectable=1;" parent="1" edge="1">
          <mxGeometry width="50" height="50" relative="1" as="geometry">
            <mxPoint x="579" y="200" as="sourcePoint" />
            <mxPoint x="80" y="200" as="targetPoint" />
          </mxGeometry>
        </mxCell>
        <mxCell id="LL6v63Wx8klDNPUl_Ktk-41" value="" style="endArrow=none;dashed=1;html=1;rounded=0;movable=0;resizable=0;rotatable=0;deletable=0;editable=0;locked=1;connectable=0;" parent="1" edge="1">
          <mxGeometry width="50" height="50" relative="1" as="geometry">
            <mxPoint x="580" y="180" as="sourcePoint" />
            <mxPoint x="80" y="180" as="targetPoint" />
          </mxGeometry>
        </mxCell>
        <mxCell id="LL6v63Wx8klDNPUl_Ktk-43" value="" style="endArrow=none;dashed=1;html=1;rounded=0;movable=0;resizable=0;rotatable=0;deletable=0;editable=0;locked=1;connectable=0;" parent="1" edge="1">
          <mxGeometry width="50" height="50" relative="1" as="geometry">
            <mxPoint x="198" y="420" as="sourcePoint" />
            <mxPoint x="199" y="320" as="targetPoint" />
          </mxGeometry>
        </mxCell>
        <mxCell id="LL6v63Wx8klDNPUl_Ktk-44" value="" style="endArrow=none;dashed=1;html=1;rounded=0;movable=0;resizable=0;rotatable=0;deletable=0;editable=0;locked=1;connectable=0;" parent="1" edge="1">
          <mxGeometry width="50" height="50" relative="1" as="geometry">
            <mxPoint x="585" y="300" as="sourcePoint" />
            <mxPoint x="180" y="300" as="targetPoint" />
          </mxGeometry>
        </mxCell>
        <mxCell id="LL6v63Wx8klDNPUl_Ktk-46" value="" style="rounded=0;whiteSpace=wrap;html=1;movable=1;resizable=1;rotatable=1;deletable=1;editable=1;locked=0;connectable=1;fillStyle=cross-hatch;strokeColor=default;align=center;verticalAlign=middle;fontFamily=Helvetica;fontSize=12;fontColor=default;fillColor=light-dark(#FFFFFF,#AEAEAE);" parent="1" vertex="1">
          <mxGeometry x="850" y="97.5" width="40" height="50" as="geometry" />
        </mxCell>
        <mxCell id="LL6v63Wx8klDNPUl_Ktk-47" value="" style="rounded=0;whiteSpace=wrap;html=1;movable=1;resizable=1;rotatable=1;deletable=1;editable=1;locked=0;connectable=1;fillStyle=cross-hatch;strokeColor=default;align=center;verticalAlign=middle;fontFamily=Helvetica;fontSize=12;fontColor=default;fillColor=light-dark(#FFFFFF,#AEAEAE);" parent="1" vertex="1">
          <mxGeometry x="850" y="147.5" width="40" height="50" as="geometry" />
        </mxCell>
        <mxCell id="LL6v63Wx8klDNPUl_Ktk-48" value="" style="rounded=0;whiteSpace=wrap;html=1;movable=1;resizable=1;rotatable=1;deletable=1;editable=1;locked=0;connectable=1;fillStyle=cross-hatch;strokeColor=default;align=center;verticalAlign=middle;fontFamily=Helvetica;fontSize=12;fontColor=default;fillColor=light-dark(#FFFFFF,#AEAEAE);" parent="1" vertex="1">
          <mxGeometry x="850" y="197.5" width="40" height="50" as="geometry" />
        </mxCell>
        <mxCell id="LL6v63Wx8klDNPUl_Ktk-49" value="" style="rounded=0;whiteSpace=wrap;html=1;movable=1;resizable=1;rotatable=1;deletable=1;editable=1;locked=0;connectable=1;fillStyle=cross-hatch;strokeColor=default;align=center;verticalAlign=middle;fontFamily=Helvetica;fontSize=12;fontColor=default;fillColor=light-dark(#FFFFFF,#AEAEAE);" parent="1" vertex="1">
          <mxGeometry x="850" y="247.5" width="40" height="50" as="geometry" />
        </mxCell>
        <mxCell id="LL6v63Wx8klDNPUl_Ktk-50" value="" style="rounded=0;whiteSpace=wrap;html=1;movable=1;resizable=1;rotatable=1;deletable=1;editable=1;locked=0;connectable=1;fillStyle=cross-hatch;strokeColor=default;align=center;verticalAlign=middle;fontFamily=Helvetica;fontSize=12;fontColor=default;fillColor=light-dark(#FFFFFF,#AEAEAE);" parent="1" vertex="1">
          <mxGeometry x="850" y="297.5" width="40" height="50" as="geometry" />
        </mxCell>
        <mxCell id="LL6v63Wx8klDNPUl_Ktk-51" value="" style="rounded=0;whiteSpace=wrap;html=1;movable=1;resizable=1;rotatable=1;deletable=1;editable=1;locked=0;connectable=1;fillStyle=cross-hatch;fillColor=light-dark(#FFFFFF,#AEAEAE);" parent="1" vertex="1">
          <mxGeometry x="850" y="347.5" width="40" height="50" as="geometry" />
        </mxCell>
        <mxCell id="LL6v63Wx8klDNPUl_Ktk-52" value="" style="rounded=0;whiteSpace=wrap;html=1;" parent="1" vertex="1">
          <mxGeometry x="837.5" y="77.5" width="65" height="20" as="geometry" />
        </mxCell>
        <mxCell id="LL6v63Wx8klDNPUl_Ktk-53" value="" style="rounded=0;whiteSpace=wrap;html=1;movable=1;resizable=1;rotatable=1;deletable=1;editable=1;locked=0;connectable=1;fillStyle=hatch;fillColor=light-dark(#FFFFFF,#808080);" parent="1" vertex="1">
          <mxGeometry x="650" y="400" width="260" height="50" as="geometry" />
        </mxCell>
        <mxCell id="LL6v63Wx8klDNPUl_Ktk-54" value="&lt;div&gt;MAIN SLAB&lt;/div&gt;" style="text;html=1;align=center;verticalAlign=middle;whiteSpace=wrap;rounded=0;strokeColor=none;sketch=1;curveFitting=1;jiggle=2;fontSize=10;labelBackgroundColor=light-dark(#FFFFFF,#FFFFFF);fontColor=light-dark(#000000,#000099);fontFamily=Lucida Console;" parent="1" vertex="1">
          <mxGeometry x="750" y="430" width="70" height="15" as="geometry" />
        </mxCell>
        <mxCell id="LL6v63Wx8klDNPUl_Ktk-88" style="edgeStyle=orthogonalEdgeStyle;rounded=0;orthogonalLoop=1;jettySize=auto;html=1;" parent="1" source="LL6v63Wx8klDNPUl_Ktk-55" edge="1">
          <mxGeometry relative="1" as="geometry">
            <mxPoint x="850" y="170" as="targetPoint" />
          </mxGeometry>
        </mxCell>
        <mxCell id="LL6v63Wx8klDNPUl_Ktk-55" value="&lt;pre&gt;CMU Standard 8&quot; x 8&quot; x 16&quot;&lt;/pre&gt;" style="text;html=1;align=center;verticalAlign=middle;whiteSpace=wrap;rounded=0;strokeColor=none;" parent="1" vertex="1">
          <mxGeometry x="640" y="155" width="190" height="32.5" as="geometry" />
        </mxCell>
        <mxCell id="LL6v63Wx8klDNPUl_Ktk-63" style="edgeStyle=orthogonalEdgeStyle;rounded=0;orthogonalLoop=1;jettySize=auto;html=1;entryX=0;entryY=0.5;entryDx=0;entryDy=0;" parent="1" source="LL6v63Wx8klDNPUl_Ktk-61" target="LL6v63Wx8klDNPUl_Ktk-52" edge="1">
          <mxGeometry relative="1" as="geometry" />
        </mxCell>
        <mxCell id="LL6v63Wx8klDNPUl_Ktk-61" value="&lt;pre&gt;Top Block/Coping&lt;/pre&gt;" style="text;html=1;align=center;verticalAlign=middle;whiteSpace=wrap;rounded=0;strokeColor=none;" parent="1" vertex="1">
          <mxGeometry x="665" y="76.25" width="125" height="22.5" as="geometry" />
        </mxCell>
        <mxCell id="LL6v63Wx8klDNPUl_Ktk-64" value="" style="endArrow=none;dashed=1;html=1;dashPattern=1 3;strokeWidth=2;rounded=0;movable=1;resizable=1;rotatable=1;deletable=1;editable=1;locked=0;connectable=1;" parent="1" source="LL6v63Wx8klDNPUl_Ktk-81" edge="1">
          <mxGeometry width="50" height="50" relative="1" as="geometry">
            <mxPoint x="630" y="420" as="sourcePoint" />
            <mxPoint x="870" y="110" as="targetPoint" />
            <Array as="points" />
          </mxGeometry>
        </mxCell>
        <mxCell id="LL6v63Wx8klDNPUl_Ktk-67" value="" style="shape=trapezoid;perimeter=trapezoidPerimeter;whiteSpace=wrap;html=1;fixedSize=1;" parent="1" vertex="1">
          <mxGeometry x="830" y="425" width="70" height="25" as="geometry" />
        </mxCell>
        <mxCell id="LL6v63Wx8klDNPUl_Ktk-68" value="" style="shape=trapezoid;perimeter=trapezoidPerimeter;whiteSpace=wrap;html=1;fixedSize=1;" parent="1" vertex="1">
          <mxGeometry x="680" y="425" width="70" height="25" as="geometry" />
        </mxCell>
        <mxCell id="LL6v63Wx8klDNPUl_Ktk-70" value="" style="endArrow=none;dashed=1;html=1;dashPattern=1 1;strokeWidth=6;rounded=0;movable=1;resizable=1;rotatable=1;deletable=1;editable=1;locked=0;connectable=1;strokeColor=default;align=center;verticalAlign=middle;fontFamily=Helvetica;fontSize=11;fontColor=default;labelBackgroundColor=default;" parent="1" source="LL6v63Wx8klDNPUl_Ktk-71" target="LL6v63Wx8klDNPUl_Ktk-69" edge="1">
          <mxGeometry width="50" height="50" relative="1" as="geometry">
            <mxPoint x="630" y="420" as="sourcePoint" />
            <mxPoint x="870" y="110" as="targetPoint" />
            <Array as="points" />
          </mxGeometry>
        </mxCell>
        <mxCell id="LL6v63Wx8klDNPUl_Ktk-69" value="" style="ellipse;whiteSpace=wrap;html=1;aspect=fixed;" parent="1" vertex="1">
          <mxGeometry x="830" y="415" width="10" height="10" as="geometry" />
        </mxCell>
        <mxCell id="LL6v63Wx8klDNPUl_Ktk-72" value="" style="endArrow=none;dashed=1;html=1;dashPattern=1 1;strokeWidth=6;rounded=0;movable=1;resizable=1;rotatable=1;deletable=1;editable=1;locked=0;connectable=1;strokeColor=default;align=center;verticalAlign=middle;fontFamily=Helvetica;fontSize=11;fontColor=default;labelBackgroundColor=default;" parent="1" source="LL6v63Wx8klDNPUl_Ktk-73" target="LL6v63Wx8klDNPUl_Ktk-71" edge="1">
          <mxGeometry width="50" height="50" relative="1" as="geometry">
            <mxPoint x="630" y="420" as="sourcePoint" />
            <mxPoint x="830" y="420" as="targetPoint" />
            <Array as="points" />
          </mxGeometry>
        </mxCell>
        <mxCell id="LL6v63Wx8klDNPUl_Ktk-71" value="" style="ellipse;whiteSpace=wrap;html=1;aspect=fixed;" parent="1" vertex="1">
          <mxGeometry x="790" y="415" width="10" height="10" as="geometry" />
        </mxCell>
        <mxCell id="LL6v63Wx8klDNPUl_Ktk-74" value="" style="endArrow=none;dashed=1;html=1;dashPattern=1 1;strokeWidth=6;rounded=0;movable=1;resizable=1;rotatable=1;deletable=1;editable=1;locked=0;connectable=1;" parent="1" source="LL6v63Wx8klDNPUl_Ktk-75" target="LL6v63Wx8klDNPUl_Ktk-73" edge="1">
          <mxGeometry width="50" height="50" relative="1" as="geometry">
            <mxPoint x="630" y="420" as="sourcePoint" />
            <mxPoint x="790" y="420" as="targetPoint" />
            <Array as="points" />
          </mxGeometry>
        </mxCell>
        <mxCell id="LL6v63Wx8klDNPUl_Ktk-73" value="" style="ellipse;whiteSpace=wrap;html=1;aspect=fixed;" parent="1" vertex="1">
          <mxGeometry x="750" y="415" width="10" height="10" as="geometry" />
        </mxCell>
        <mxCell id="LL6v63Wx8klDNPUl_Ktk-76" value="" style="endArrow=none;dashed=1;html=1;dashPattern=1 1;strokeWidth=6;rounded=0;movable=1;resizable=1;rotatable=1;deletable=1;editable=1;locked=0;connectable=1;strokeColor=default;align=center;verticalAlign=middle;fontFamily=Helvetica;fontSize=11;fontColor=default;labelBackgroundColor=default;" parent="1" source="LL6v63Wx8klDNPUl_Ktk-77" target="LL6v63Wx8klDNPUl_Ktk-75" edge="1">
          <mxGeometry width="50" height="50" relative="1" as="geometry">
            <mxPoint x="630" y="420" as="sourcePoint" />
            <mxPoint x="750" y="420" as="targetPoint" />
            <Array as="points" />
          </mxGeometry>
        </mxCell>
        <mxCell id="LL6v63Wx8klDNPUl_Ktk-75" value="" style="ellipse;whiteSpace=wrap;html=1;aspect=fixed;" parent="1" vertex="1">
          <mxGeometry x="710" y="415" width="10" height="10" as="geometry" />
        </mxCell>
        <mxCell id="LL6v63Wx8klDNPUl_Ktk-78" value="" style="endArrow=none;dashed=1;html=1;dashPattern=1 1;strokeWidth=6;rounded=0;movable=1;resizable=1;rotatable=1;deletable=1;editable=1;locked=0;connectable=1;strokeColor=default;align=center;verticalAlign=middle;fontFamily=Helvetica;fontSize=11;fontColor=default;labelBackgroundColor=default;" parent="1" target="LL6v63Wx8klDNPUl_Ktk-77" edge="1">
          <mxGeometry width="50" height="50" relative="1" as="geometry">
            <mxPoint x="630" y="420" as="sourcePoint" />
            <mxPoint x="710" y="420" as="targetPoint" />
            <Array as="points" />
          </mxGeometry>
        </mxCell>
        <mxCell id="LL6v63Wx8klDNPUl_Ktk-77" value="" style="ellipse;whiteSpace=wrap;html=1;aspect=fixed;" parent="1" vertex="1">
          <mxGeometry x="670" y="415" width="10" height="10" as="geometry" />
        </mxCell>
        <mxCell id="LL6v63Wx8klDNPUl_Ktk-80" value="" style="endArrow=none;dashed=1;html=1;strokeWidth=5;rounded=0;movable=1;resizable=1;rotatable=1;deletable=1;editable=1;locked=0;connectable=1;curved=0;sketch=1;curveFitting=1;jiggle=2;" parent="1" source="LL6v63Wx8klDNPUl_Ktk-69" edge="1">
          <mxGeometry width="50" height="50" relative="1" as="geometry">
            <mxPoint x="840" y="420" as="sourcePoint" />
            <mxPoint x="870" y="110" as="targetPoint" />
            <Array as="points">
              <mxPoint x="870" y="420" />
            </Array>
          </mxGeometry>
        </mxCell>
        <mxCell id="LL6v63Wx8klDNPUl_Ktk-79" value="" style="ellipse;whiteSpace=wrap;html=1;aspect=fixed;" parent="1" vertex="1">
          <mxGeometry x="865" y="341.25" width="10" height="10" as="geometry" />
        </mxCell>
        <mxCell id="LL6v63Wx8klDNPUl_Ktk-82" value="" style="endArrow=none;dashed=1;html=1;dashPattern=1 3;strokeWidth=2;rounded=0;movable=1;resizable=1;rotatable=1;deletable=1;editable=1;locked=0;connectable=1;" parent="1" source="LL6v63Wx8klDNPUl_Ktk-79" target="LL6v63Wx8klDNPUl_Ktk-81" edge="1">
          <mxGeometry width="50" height="50" relative="1" as="geometry">
            <mxPoint x="870" y="341" as="sourcePoint" />
            <mxPoint x="870" y="110" as="targetPoint" />
            <Array as="points" />
          </mxGeometry>
        </mxCell>
        <mxCell id="LL6v63Wx8klDNPUl_Ktk-81" value="" style="ellipse;whiteSpace=wrap;html=1;aspect=fixed;" parent="1" vertex="1">
          <mxGeometry x="865" y="145" width="10" height="10" as="geometry" />
        </mxCell>
        <mxCell id="LL6v63Wx8klDNPUl_Ktk-86" style="edgeStyle=orthogonalEdgeStyle;rounded=0;orthogonalLoop=1;jettySize=auto;html=1;entryX=0.5;entryY=1;entryDx=0;entryDy=0;" parent="1" source="LL6v63Wx8klDNPUl_Ktk-84" target="LL6v63Wx8klDNPUl_Ktk-67" edge="1">
          <mxGeometry relative="1" as="geometry" />
        </mxCell>
        <mxCell id="GztURZSVZ-j2a2Ba5-2v-4" style="edgeStyle=orthogonalEdgeStyle;rounded=0;orthogonalLoop=1;jettySize=auto;html=1;exitX=0;exitY=0.75;exitDx=0;exitDy=0;entryX=0.25;entryY=1;entryDx=0;entryDy=0;" parent="1" source="LL6v63Wx8klDNPUl_Ktk-84" target="LL6v63Wx8klDNPUl_Ktk-68" edge="1">
          <mxGeometry relative="1" as="geometry" />
        </mxCell>
        <mxCell id="LL6v63Wx8klDNPUl_Ktk-84" value="&lt;div style=&quot;line-height: 40%;&quot;&gt;&lt;pre&gt;Supporting &lt;/pre&gt;&lt;pre&gt;masonry &lt;/pre&gt;&lt;pre&gt;unit (Dobie)&lt;/pre&gt;&lt;/div&gt;" style="text;html=1;align=center;verticalAlign=middle;whiteSpace=wrap;rounded=0;strokeColor=none;" parent="1" vertex="1">
          <mxGeometry x="920.63" y="460" width="108.75" height="62.5" as="geometry" />
        </mxCell>
        <mxCell id="LL6v63Wx8klDNPUl_Ktk-89" style="edgeStyle=orthogonalEdgeStyle;rounded=0;orthogonalLoop=1;jettySize=auto;html=1;entryX=0.5;entryY=0;entryDx=0;entryDy=0;" parent="1" source="LL6v63Wx8klDNPUl_Ktk-87" target="LL6v63Wx8klDNPUl_Ktk-77" edge="1">
          <mxGeometry relative="1" as="geometry" />
        </mxCell>
        <mxCell id="LL6v63Wx8klDNPUl_Ktk-87" value="&lt;div style=&quot;line-height: 40%;&quot;&gt;&lt;pre&gt;Intersecting &lt;/pre&gt;&lt;pre&gt;#4 Rebar&lt;/pre&gt;&lt;/div&gt;" style="text;html=1;align=center;verticalAlign=middle;whiteSpace=wrap;rounded=0;strokeColor=none;" parent="1" vertex="1">
          <mxGeometry x="602.5" y="349" width="145" height="28.75" as="geometry" />
        </mxCell>
        <mxCell id="LL6v63Wx8klDNPUl_Ktk-91" style="edgeStyle=orthogonalEdgeStyle;rounded=0;orthogonalLoop=1;jettySize=auto;html=1;entryX=0;entryY=0.5;entryDx=0;entryDy=0;" parent="1" source="LL6v63Wx8klDNPUl_Ktk-90" target="LL6v63Wx8klDNPUl_Ktk-79" edge="1">
          <mxGeometry relative="1" as="geometry" />
        </mxCell>
        <mxCell id="LL6v63Wx8klDNPUl_Ktk-90" value="&lt;div style=&quot;line-height: 40%;&quot;&gt;&lt;pre&gt;Horizontal #4&lt;/pre&gt;&lt;/div&gt;" style="text;html=1;align=center;verticalAlign=middle;whiteSpace=wrap;rounded=0;strokeColor=none;" parent="1" vertex="1">
          <mxGeometry x="713.75" y="333.13" width="116.25" height="26.25" as="geometry" />
        </mxCell>
        <mxCell id="LL6v63Wx8klDNPUl_Ktk-93" style="edgeStyle=orthogonalEdgeStyle;rounded=0;orthogonalLoop=1;jettySize=auto;html=1;entryX=1;entryY=0.5;entryDx=0;entryDy=0;" parent="1" source="LL6v63Wx8klDNPUl_Ktk-92" target="LL6v63Wx8klDNPUl_Ktk-81" edge="1">
          <mxGeometry relative="1" as="geometry" />
        </mxCell>
        <mxCell id="LL6v63Wx8klDNPUl_Ktk-92" value="&lt;div style=&quot;line-height: 40%;&quot;&gt;&lt;pre&gt;Top Ring&lt;/pre&gt;&lt;/div&gt;" style="text;html=1;align=center;verticalAlign=middle;whiteSpace=wrap;rounded=0;strokeColor=none;" parent="1" vertex="1">
          <mxGeometry x="910" y="132.5" width="77.5" height="35" as="geometry" />
        </mxCell>
        <mxCell id="LL6v63Wx8klDNPUl_Ktk-95" style="edgeStyle=orthogonalEdgeStyle;rounded=0;orthogonalLoop=1;jettySize=auto;html=1;" parent="1" source="LL6v63Wx8klDNPUl_Ktk-94" edge="1">
          <mxGeometry relative="1" as="geometry">
            <mxPoint x="870" y="236.25" as="targetPoint" />
            <Array as="points">
              <mxPoint x="818" y="240" />
              <mxPoint x="818" y="236" />
            </Array>
          </mxGeometry>
        </mxCell>
        <mxCell id="LL6v63Wx8klDNPUl_Ktk-94" value="&lt;div style=&quot;line-height: 40%;&quot;&gt;&lt;pre&gt;#4 &#39;L&#39; Rebar Vertical&lt;br&gt;&lt;/pre&gt;&lt;/div&gt;" style="text;html=1;align=center;verticalAlign=middle;whiteSpace=wrap;rounded=0;strokeColor=none;" parent="1" vertex="1">
          <mxGeometry x="680" y="227.5" width="150" height="20" as="geometry" />
        </mxCell>
        <mxCell id="US-OKdlzFDQY7FfolMQk-9" style="edgeStyle=orthogonalEdgeStyle;rounded=0;orthogonalLoop=1;jettySize=auto;html=1;" edge="1" parent="1" source="LL6v63Wx8klDNPUl_Ktk-96">
          <mxGeometry relative="1" as="geometry">
            <mxPoint x="390" y="410" as="targetPoint" />
          </mxGeometry>
        </mxCell>
        <mxCell id="US-OKdlzFDQY7FfolMQk-10" style="edgeStyle=orthogonalEdgeStyle;rounded=0;orthogonalLoop=1;jettySize=auto;html=1;exitX=0.75;exitY=0;exitDx=0;exitDy=0;" edge="1" parent="1" source="LL6v63Wx8klDNPUl_Ktk-96">
          <mxGeometry relative="1" as="geometry">
            <mxPoint x="400" y="380" as="targetPoint" />
          </mxGeometry>
        </mxCell>
        <mxCell id="LL6v63Wx8klDNPUl_Ktk-96" value="&lt;div style=&quot;line-height: 40%;&quot;&gt;&lt;pre&gt;#4 Rebar&lt;/pre&gt;&lt;/div&gt;" style="text;html=1;align=center;verticalAlign=middle;whiteSpace=wrap;rounded=0;strokeColor=none;" parent="1" vertex="1">
          <mxGeometry x="360" y="445" width="60" height="20" as="geometry" />
        </mxCell>
        <mxCell id="LL6v63Wx8klDNPUl_Ktk-98" value="&lt;pre&gt;&lt;u&gt;Cross Section&lt;/u&gt;&lt;/pre&gt;" style="text;html=1;align=center;verticalAlign=middle;whiteSpace=wrap;rounded=0;fontFamily=Helvetica;fontSize=20;fontColor=default;fontStyle=4;" parent="1" vertex="1">
          <mxGeometry x="768.75" y="10" width="192.5" height="45" as="geometry" />
        </mxCell>
        <mxCell id="LL6v63Wx8klDNPUl_Ktk-99" value="&lt;b&gt;&lt;font style=&quot;font-size: 14px;&quot;&gt;&#39; 12&lt;/font&gt;&lt;/b&gt;" style="shape=dimension;direction=south;whiteSpace=wrap;html=1;align=center;points=[];verticalAlign=top;labelBackgroundColor=none;horizontal=0;spacingTop=-15;movable=0;resizable=0;rotatable=0;deletable=0;editable=0;locked=1;connectable=0;" parent="1" vertex="1">
          <mxGeometry x="50" y="160" width="40" height="270" as="geometry" />
        </mxCell>
        <mxCell id="LL6v63Wx8klDNPUl_Ktk-100" value="&lt;b&gt;&lt;font style=&quot;font-size: 14px;&quot;&gt;&#39; 16&lt;/font&gt;&lt;/b&gt;" style="shape=dimension;direction=west;whiteSpace=wrap;html=1;align=center;points=[];verticalAlign=top;spacingTop=-15;labelBackgroundColor=none;movable=1;resizable=1;rotatable=1;deletable=1;editable=1;locked=0;connectable=1;" parent="1" vertex="1">
          <mxGeometry x="80" y="80" width="510" height="40" as="geometry" />
        </mxCell>
        <mxCell id="LL6v63Wx8klDNPUl_Ktk-101" value="12&quot;" style="shape=dimension;whiteSpace=wrap;html=1;align=center;points=[];verticalAlign=bottom;spacingBottom=3;labelBackgroundColor=none;" parent="1" vertex="1">
          <mxGeometry x="80" y="450" width="40" height="30" as="geometry" />
        </mxCell>
        <mxCell id="LL6v63Wx8klDNPUl_Ktk-104" value="12&quot;" style="shape=dimension;whiteSpace=wrap;html=1;align=center;points=[];verticalAlign=bottom;spacingBottom=3;labelBackgroundColor=none;" parent="1" vertex="1">
          <mxGeometry x="715" y="440" width="80" height="40" as="geometry" />
        </mxCell>
        <mxCell id="LL6v63Wx8klDNPUl_Ktk-106" value="&lt;pre&gt;* All steel shall have a minimum 6&quot; clearance from surrounding earth and forms before concrete pour&lt;/pre&gt;" style="text;html=1;align=center;verticalAlign=middle;whiteSpace=wrap;rounded=0;strokeColor=none;" parent="1" vertex="1">
          <mxGeometry x="80" y="630" width="635" height="50" as="geometry" />
        </mxCell>
        <mxCell id="GztURZSVZ-j2a2Ba5-2v-5" value="&lt;pre&gt;* Vibrated concrete for vertical walls &lt;/pre&gt;" style="text;html=1;align=center;verticalAlign=middle;whiteSpace=wrap;rounded=0;strokeColor=none;" parent="1" vertex="1">
          <mxGeometry x="70" y="665" width="265" height="50" as="geometry" />
        </mxCell>
        <mxCell id="FLEw9crjutKA1QpYoIBm-1" value="" style="ellipse;whiteSpace=wrap;html=1;aspect=fixed;" parent="1" vertex="1">
          <mxGeometry x="865" y="242" width="10" height="10" as="geometry" />
        </mxCell>
        <mxCell id="FLEw9crjutKA1QpYoIBm-2" value="&lt;font face=&quot;Lucida Console&quot;&gt;Walkway ***&lt;/font&gt;" style="rounded=0;whiteSpace=wrap;html=1;spacingBottom=19;movable=1;resizable=1;rotatable=1;deletable=1;editable=1;locked=0;connectable=1;fillStyle=hatch;strokeColor=default;align=center;verticalAlign=middle;fontFamily=Helvetica;fontSize=12;fontColor=default;fillColor=light-dark(#FFFFFF,#808080);" parent="1" vertex="1">
          <mxGeometry x="890" y="225.5" width="170" height="43" as="geometry" />
        </mxCell>
        <mxCell id="FLEw9crjutKA1QpYoIBm-3" value="" style="endArrow=none;dashed=1;html=1;dashPattern=1 3;strokeWidth=2;rounded=0;" parent="1" edge="1">
          <mxGeometry width="50" height="50" relative="1" as="geometry">
            <mxPoint x="880" y="269" as="sourcePoint" />
            <mxPoint x="1040" y="250" as="targetPoint" />
            <Array as="points">
              <mxPoint x="880" y="250" />
            </Array>
          </mxGeometry>
        </mxCell>
        <mxCell id="FLEw9crjutKA1QpYoIBm-4" value="&lt;pre&gt;*** Walkway to us #4 &#39;L&#39; Rebar tied into vertical steel acting as a bond beam and shear key&lt;/pre&gt;" style="text;html=1;align=center;verticalAlign=middle;whiteSpace=wrap;rounded=0;strokeColor=none;" parent="1" vertex="1">
          <mxGeometry x="45" y="700" width="665" height="50" as="geometry" />
        </mxCell>
        <mxCell id="hxWqqJYnxAzXDW9ncuUw-17" value="" style="ellipse;shape=doubleEllipse;whiteSpace=wrap;html=1;aspect=fixed;" parent="1" vertex="1">
          <mxGeometry x="485" y="297.5" width="20" height="20" as="geometry" />
        </mxCell>
        <mxCell id="hxWqqJYnxAzXDW9ncuUw-18" value="" style="shape=waypoint;sketch=0;fillStyle=solid;size=6;pointerEvents=1;points=[];fillColor=none;resizable=0;rotatable=0;perimeter=centerPerimeter;snapToPoint=1;" parent="1" vertex="1">
          <mxGeometry x="560" y="390" width="20" height="20" as="geometry" />
        </mxCell>
        <mxCell id="hxWqqJYnxAzXDW9ncuUw-19" value="" style="shape=waypoint;sketch=0;fillStyle=solid;size=6;pointerEvents=1;points=[];fillColor=none;resizable=0;rotatable=0;perimeter=centerPerimeter;snapToPoint=1;" parent="1" vertex="1">
          <mxGeometry x="520" y="390" width="20" height="20" as="geometry" />
        </mxCell>
        <mxCell id="hxWqqJYnxAzXDW9ncuUw-20" value="" style="shape=waypoint;sketch=0;fillStyle=solid;size=6;pointerEvents=1;points=[];fillColor=none;resizable=0;rotatable=0;perimeter=centerPerimeter;snapToPoint=1;" parent="1" vertex="1">
          <mxGeometry x="440" y="390" width="20" height="20" as="geometry" />
        </mxCell>
        <mxCell id="hxWqqJYnxAzXDW9ncuUw-21" value="" style="shape=waypoint;sketch=0;fillStyle=solid;size=6;pointerEvents=1;points=[];fillColor=none;resizable=0;rotatable=0;perimeter=centerPerimeter;snapToPoint=1;" parent="1" vertex="1">
          <mxGeometry x="480" y="390" width="20" height="20" as="geometry" />
        </mxCell>
        <mxCell id="hxWqqJYnxAzXDW9ncuUw-22" value="" style="shape=waypoint;sketch=0;fillStyle=solid;size=6;pointerEvents=1;points=[];fillColor=none;resizable=0;rotatable=0;perimeter=centerPerimeter;snapToPoint=1;" parent="1" vertex="1">
          <mxGeometry x="360" y="390" width="20" height="20" as="geometry" />
        </mxCell>
        <mxCell id="hxWqqJYnxAzXDW9ncuUw-23" value="" style="shape=waypoint;sketch=0;fillStyle=solid;size=6;pointerEvents=1;points=[];fillColor=none;resizable=0;rotatable=0;perimeter=centerPerimeter;snapToPoint=1;" parent="1" vertex="1">
          <mxGeometry x="400" y="390" width="20" height="20" as="geometry" />
        </mxCell>
        <mxCell id="hxWqqJYnxAzXDW9ncuUw-24" value="" style="shape=waypoint;sketch=0;fillStyle=solid;size=6;pointerEvents=1;points=[];fillColor=none;resizable=0;rotatable=0;perimeter=centerPerimeter;snapToPoint=1;" parent="1" vertex="1">
          <mxGeometry x="280" y="390" width="20" height="20" as="geometry" />
        </mxCell>
        <mxCell id="hxWqqJYnxAzXDW9ncuUw-25" value="" style="shape=waypoint;sketch=0;fillStyle=solid;size=6;pointerEvents=1;points=[];fillColor=none;resizable=0;rotatable=0;perimeter=centerPerimeter;snapToPoint=1;" parent="1" vertex="1">
          <mxGeometry x="320" y="390" width="20" height="20" as="geometry" />
        </mxCell>
        <mxCell id="hxWqqJYnxAzXDW9ncuUw-26" value="" style="shape=waypoint;sketch=0;fillStyle=solid;size=6;pointerEvents=1;points=[];fillColor=none;resizable=0;rotatable=0;perimeter=centerPerimeter;snapToPoint=1;" parent="1" vertex="1">
          <mxGeometry x="240" y="390" width="20" height="20" as="geometry" />
        </mxCell>
        <mxCell id="hxWqqJYnxAzXDW9ncuUw-27" value="" style="shape=waypoint;sketch=0;fillStyle=solid;size=6;pointerEvents=1;points=[];fillColor=none;resizable=0;rotatable=0;perimeter=centerPerimeter;snapToPoint=1;" parent="1" vertex="1">
          <mxGeometry x="204" y="390" width="20" height="20" as="geometry" />
        </mxCell>
        <mxCell id="hxWqqJYnxAzXDW9ncuUw-28" value="" style="shape=waypoint;sketch=0;fillStyle=solid;size=6;pointerEvents=1;points=[];fillColor=none;resizable=0;rotatable=0;perimeter=centerPerimeter;snapToPoint=1;" parent="1" vertex="1">
          <mxGeometry x="170" y="390" width="20" height="20" as="geometry" />
        </mxCell>
        <mxCell id="hxWqqJYnxAzXDW9ncuUw-29" value="" style="shape=waypoint;sketch=0;fillStyle=solid;size=6;pointerEvents=1;points=[];fillColor=none;resizable=0;rotatable=0;perimeter=centerPerimeter;snapToPoint=1;" parent="1" vertex="1">
          <mxGeometry x="130" y="390" width="20" height="20" as="geometry" />
        </mxCell>
        <mxCell id="hxWqqJYnxAzXDW9ncuUw-30" value="" style="shape=waypoint;sketch=0;fillStyle=solid;size=6;pointerEvents=1;points=[];fillColor=none;resizable=0;rotatable=0;perimeter=centerPerimeter;snapToPoint=1;" parent="1" vertex="1">
          <mxGeometry x="90" y="390" width="20" height="20" as="geometry" />
        </mxCell>
        <mxCell id="hxWqqJYnxAzXDW9ncuUw-31" value="" style="shape=waypoint;sketch=0;fillStyle=solid;size=6;pointerEvents=1;points=[];fillColor=none;resizable=0;rotatable=0;perimeter=centerPerimeter;snapToPoint=1;" parent="1" vertex="1">
          <mxGeometry x="90" y="170" width="20" height="20" as="geometry" />
        </mxCell>
        <mxCell id="hxWqqJYnxAzXDW9ncuUw-32" value="" style="shape=waypoint;sketch=0;fillStyle=solid;size=6;pointerEvents=1;points=[];fillColor=none;resizable=0;rotatable=0;perimeter=centerPerimeter;snapToPoint=1;" parent="1" vertex="1">
          <mxGeometry x="130" y="170" width="20" height="20" as="geometry" />
        </mxCell>
        <mxCell id="hxWqqJYnxAzXDW9ncuUw-33" value="" style="shape=waypoint;sketch=0;fillStyle=solid;size=6;pointerEvents=1;points=[];fillColor=none;resizable=0;rotatable=0;perimeter=centerPerimeter;snapToPoint=1;" parent="1" vertex="1">
          <mxGeometry x="170" y="170" width="20" height="20" as="geometry" />
        </mxCell>
        <mxCell id="hxWqqJYnxAzXDW9ncuUw-34" value="" style="shape=waypoint;sketch=0;fillStyle=solid;size=6;pointerEvents=1;points=[];fillColor=none;resizable=0;rotatable=0;perimeter=centerPerimeter;snapToPoint=1;" parent="1" vertex="1">
          <mxGeometry x="204" y="170" width="20" height="20" as="geometry" />
        </mxCell>
        <mxCell id="hxWqqJYnxAzXDW9ncuUw-35" value="" style="shape=waypoint;sketch=0;fillStyle=solid;size=6;pointerEvents=1;points=[];fillColor=none;resizable=0;rotatable=0;perimeter=centerPerimeter;snapToPoint=1;" parent="1" vertex="1">
          <mxGeometry x="240" y="170" width="20" height="20" as="geometry" />
        </mxCell>
        <mxCell id="hxWqqJYnxAzXDW9ncuUw-36" value="" style="shape=waypoint;sketch=0;fillStyle=solid;size=6;pointerEvents=1;points=[];fillColor=none;resizable=0;rotatable=0;perimeter=centerPerimeter;snapToPoint=1;" parent="1" vertex="1">
          <mxGeometry x="280" y="170" width="20" height="20" as="geometry" />
        </mxCell>
        <mxCell id="hxWqqJYnxAzXDW9ncuUw-37" value="" style="shape=waypoint;sketch=0;fillStyle=solid;size=6;pointerEvents=1;points=[];fillColor=none;resizable=0;rotatable=0;perimeter=centerPerimeter;snapToPoint=1;" parent="1" vertex="1">
          <mxGeometry x="320" y="170" width="20" height="20" as="geometry" />
        </mxCell>
        <mxCell id="hxWqqJYnxAzXDW9ncuUw-38" value="" style="shape=waypoint;sketch=0;fillStyle=solid;size=6;pointerEvents=1;points=[];fillColor=none;resizable=0;rotatable=0;perimeter=centerPerimeter;snapToPoint=1;" parent="1" vertex="1">
          <mxGeometry x="360" y="170" width="20" height="20" as="geometry" />
        </mxCell>
        <mxCell id="hxWqqJYnxAzXDW9ncuUw-39" value="" style="shape=waypoint;sketch=0;fillStyle=solid;size=6;pointerEvents=1;points=[];fillColor=none;resizable=0;rotatable=0;perimeter=centerPerimeter;snapToPoint=1;" parent="1" vertex="1">
          <mxGeometry x="400" y="170" width="20" height="20" as="geometry" />
        </mxCell>
        <mxCell id="hxWqqJYnxAzXDW9ncuUw-40" value="" style="shape=waypoint;sketch=0;fillStyle=solid;size=6;pointerEvents=1;points=[];fillColor=none;resizable=0;rotatable=0;perimeter=centerPerimeter;snapToPoint=1;" parent="1" vertex="1">
          <mxGeometry x="440" y="170" width="20" height="20" as="geometry" />
        </mxCell>
        <mxCell id="hxWqqJYnxAzXDW9ncuUw-41" value="" style="shape=waypoint;sketch=0;fillStyle=solid;size=6;pointerEvents=1;points=[];fillColor=none;resizable=0;rotatable=0;perimeter=centerPerimeter;snapToPoint=1;" parent="1" vertex="1">
          <mxGeometry x="480" y="170" width="20" height="20" as="geometry" />
        </mxCell>
        <mxCell id="hxWqqJYnxAzXDW9ncuUw-42" value="" style="shape=waypoint;sketch=0;fillStyle=solid;size=6;pointerEvents=1;points=[];fillColor=none;resizable=0;rotatable=0;perimeter=centerPerimeter;snapToPoint=1;" parent="1" vertex="1">
          <mxGeometry x="520" y="170" width="20" height="20" as="geometry" />
        </mxCell>
        <mxCell id="hxWqqJYnxAzXDW9ncuUw-43" value="" style="shape=waypoint;sketch=0;fillStyle=solid;size=6;pointerEvents=1;points=[];fillColor=none;resizable=0;rotatable=0;perimeter=centerPerimeter;snapToPoint=1;" parent="1" vertex="1">
          <mxGeometry x="560" y="170" width="20" height="20" as="geometry" />
        </mxCell>
        <mxCell id="hxWqqJYnxAzXDW9ncuUw-44" value="" style="shape=waypoint;sketch=0;fillStyle=solid;size=6;pointerEvents=1;points=[];fillColor=none;resizable=0;rotatable=0;perimeter=centerPerimeter;snapToPoint=1;" parent="1" vertex="1">
          <mxGeometry x="560" y="190" width="20" height="20" as="geometry" />
        </mxCell>
        <mxCell id="hxWqqJYnxAzXDW9ncuUw-45" value="" style="shape=waypoint;sketch=0;fillStyle=solid;size=6;pointerEvents=1;points=[];fillColor=none;resizable=0;rotatable=0;perimeter=centerPerimeter;snapToPoint=1;" parent="1" vertex="1">
          <mxGeometry x="560" y="210" width="20" height="20" as="geometry" />
        </mxCell>
        <mxCell id="hxWqqJYnxAzXDW9ncuUw-46" value="" style="shape=waypoint;sketch=0;fillStyle=solid;size=6;pointerEvents=1;points=[];fillColor=none;resizable=0;rotatable=0;perimeter=centerPerimeter;snapToPoint=1;" parent="1" vertex="1">
          <mxGeometry x="560" y="230" width="20" height="20" as="geometry" />
        </mxCell>
        <mxCell id="hxWqqJYnxAzXDW9ncuUw-47" value="" style="shape=waypoint;sketch=0;fillStyle=solid;size=6;pointerEvents=1;points=[];fillColor=none;resizable=0;rotatable=0;perimeter=centerPerimeter;snapToPoint=1;" parent="1" vertex="1">
          <mxGeometry x="560" y="250" width="20" height="20" as="geometry" />
        </mxCell>
        <mxCell id="hxWqqJYnxAzXDW9ncuUw-48" value="" style="shape=waypoint;sketch=0;fillStyle=solid;size=6;pointerEvents=1;points=[];fillColor=none;resizable=0;rotatable=0;perimeter=centerPerimeter;snapToPoint=1;" parent="1" vertex="1">
          <mxGeometry x="560" y="269" width="20" height="20" as="geometry" />
        </mxCell>
        <mxCell id="hxWqqJYnxAzXDW9ncuUw-49" value="" style="shape=waypoint;sketch=0;fillStyle=solid;size=6;pointerEvents=1;points=[];fillColor=none;resizable=0;rotatable=0;perimeter=centerPerimeter;snapToPoint=1;" parent="1" vertex="1">
          <mxGeometry x="560" y="289" width="20" height="20" as="geometry" />
        </mxCell>
        <mxCell id="hxWqqJYnxAzXDW9ncuUw-50" value="" style="shape=waypoint;sketch=0;fillStyle=solid;size=6;pointerEvents=1;points=[];fillColor=none;resizable=0;rotatable=0;perimeter=centerPerimeter;snapToPoint=1;" parent="1" vertex="1">
          <mxGeometry x="560" y="309" width="20" height="20" as="geometry" />
        </mxCell>
        <mxCell id="hxWqqJYnxAzXDW9ncuUw-51" value="" style="shape=waypoint;sketch=0;fillStyle=solid;size=6;pointerEvents=1;points=[];fillColor=none;resizable=0;rotatable=0;perimeter=centerPerimeter;snapToPoint=1;" parent="1" vertex="1">
          <mxGeometry x="560" y="329" width="20" height="20" as="geometry" />
        </mxCell>
        <mxCell id="hxWqqJYnxAzXDW9ncuUw-52" value="" style="shape=waypoint;sketch=0;fillStyle=solid;size=6;pointerEvents=1;points=[];fillColor=none;resizable=0;rotatable=0;perimeter=centerPerimeter;snapToPoint=1;" parent="1" vertex="1">
          <mxGeometry x="560" y="349" width="20" height="20" as="geometry" />
        </mxCell>
        <mxCell id="hxWqqJYnxAzXDW9ncuUw-53" value="" style="shape=waypoint;sketch=0;fillStyle=solid;size=6;pointerEvents=1;points=[];fillColor=none;resizable=0;rotatable=0;perimeter=centerPerimeter;snapToPoint=1;" parent="1" vertex="1">
          <mxGeometry x="560" y="369" width="20" height="20" as="geometry" />
        </mxCell>
        <mxCell id="hxWqqJYnxAzXDW9ncuUw-54" value="" style="shape=waypoint;sketch=0;fillStyle=solid;size=6;pointerEvents=1;points=[];fillColor=none;resizable=0;rotatable=0;perimeter=centerPerimeter;snapToPoint=1;" parent="1" vertex="1">
          <mxGeometry x="90" y="370" width="20" height="20" as="geometry" />
        </mxCell>
        <mxCell id="hxWqqJYnxAzXDW9ncuUw-55" value="" style="shape=waypoint;sketch=0;fillStyle=solid;size=6;pointerEvents=1;points=[];fillColor=none;resizable=0;rotatable=0;perimeter=centerPerimeter;snapToPoint=1;" parent="1" vertex="1">
          <mxGeometry x="90" y="189.75" width="20" height="20" as="geometry" />
        </mxCell>
        <mxCell id="hxWqqJYnxAzXDW9ncuUw-56" value="" style="shape=waypoint;sketch=0;fillStyle=solid;size=6;pointerEvents=1;points=[];fillColor=none;resizable=0;rotatable=0;perimeter=centerPerimeter;snapToPoint=1;" parent="1" vertex="1">
          <mxGeometry x="90" y="209.75" width="20" height="20" as="geometry" />
        </mxCell>
        <mxCell id="hxWqqJYnxAzXDW9ncuUw-57" value="" style="shape=waypoint;sketch=0;fillStyle=solid;size=6;pointerEvents=1;points=[];fillColor=none;resizable=0;rotatable=0;perimeter=centerPerimeter;snapToPoint=1;" parent="1" vertex="1">
          <mxGeometry x="90" y="229.75" width="20" height="20" as="geometry" />
        </mxCell>
        <mxCell id="hxWqqJYnxAzXDW9ncuUw-58" value="" style="shape=waypoint;sketch=0;fillStyle=solid;size=6;pointerEvents=1;points=[];fillColor=none;resizable=0;rotatable=0;perimeter=centerPerimeter;snapToPoint=1;" parent="1" vertex="1">
          <mxGeometry x="90" y="248.75" width="20" height="20" as="geometry" />
        </mxCell>
        <mxCell id="hxWqqJYnxAzXDW9ncuUw-59" value="" style="shape=waypoint;sketch=0;fillStyle=solid;size=6;pointerEvents=1;points=[];fillColor=none;resizable=0;rotatable=0;perimeter=centerPerimeter;snapToPoint=1;" parent="1" vertex="1">
          <mxGeometry x="90" y="268.75" width="20" height="20" as="geometry" />
        </mxCell>
        <mxCell id="hxWqqJYnxAzXDW9ncuUw-60" value="" style="shape=waypoint;sketch=0;fillStyle=solid;size=6;pointerEvents=1;points=[];fillColor=none;resizable=0;rotatable=0;perimeter=centerPerimeter;snapToPoint=1;" parent="1" vertex="1">
          <mxGeometry x="90" y="288.75" width="20" height="20" as="geometry" />
        </mxCell>
        <mxCell id="hxWqqJYnxAzXDW9ncuUw-61" value="" style="shape=waypoint;sketch=0;fillStyle=solid;size=6;pointerEvents=1;points=[];fillColor=none;resizable=0;rotatable=0;perimeter=centerPerimeter;snapToPoint=1;" parent="1" vertex="1">
          <mxGeometry x="90" y="308.75" width="20" height="20" as="geometry" />
        </mxCell>
        <mxCell id="hxWqqJYnxAzXDW9ncuUw-62" value="" style="shape=waypoint;sketch=0;fillStyle=solid;size=6;pointerEvents=1;points=[];fillColor=none;resizable=0;rotatable=0;perimeter=centerPerimeter;snapToPoint=1;" parent="1" vertex="1">
          <mxGeometry x="90" y="349" width="20" height="20" as="geometry" />
        </mxCell>
        <mxCell id="hxWqqJYnxAzXDW9ncuUw-63" value="" style="shape=waypoint;sketch=0;fillStyle=solid;size=6;pointerEvents=1;points=[];fillColor=none;resizable=0;rotatable=0;perimeter=centerPerimeter;snapToPoint=1;" parent="1" vertex="1">
          <mxGeometry x="90" y="329" width="20" height="20" as="geometry" />
        </mxCell>
        <mxCell id="hxWqqJYnxAzXDW9ncuUw-64" value="&lt;div style=&quot;line-height: 40%;&quot;&gt;&lt;pre&gt;&#39;L&#39; Vertical Rebar &lt;/pre&gt;&lt;/div&gt;" style="text;html=1;align=center;verticalAlign=middle;whiteSpace=wrap;rounded=0;strokeColor=none;" parent="1" vertex="1">
          <mxGeometry x="178.75" y="440" width="142.5" height="30" as="geometry" />
        </mxCell>
        <mxCell id="hxWqqJYnxAzXDW9ncuUw-65" style="edgeStyle=orthogonalEdgeStyle;rounded=0;orthogonalLoop=1;jettySize=auto;html=1;entryX=0.603;entryY=0.745;entryDx=0;entryDy=0;entryPerimeter=0;" parent="1" source="hxWqqJYnxAzXDW9ncuUw-64" target="hxWqqJYnxAzXDW9ncuUw-26" edge="1">
          <mxGeometry relative="1" as="geometry" />
        </mxCell>
        <mxCell id="hxWqqJYnxAzXDW9ncuUw-67" style="edgeStyle=orthogonalEdgeStyle;rounded=0;orthogonalLoop=1;jettySize=auto;html=1;" parent="1" source="hxWqqJYnxAzXDW9ncuUw-66" target="hxWqqJYnxAzXDW9ncuUw-17" edge="1">
          <mxGeometry relative="1" as="geometry">
            <Array as="points">
              <mxPoint x="495" y="450" />
              <mxPoint x="495" y="450" />
            </Array>
          </mxGeometry>
        </mxCell>
        <mxCell id="hxWqqJYnxAzXDW9ncuUw-66" value="&lt;div style=&quot;line-height: 40%;&quot;&gt;&lt;pre&gt;Main Drain Stub&lt;/pre&gt;&lt;/div&gt;" style="text;html=1;align=center;verticalAlign=middle;whiteSpace=wrap;rounded=0;strokeColor=none;" parent="1" vertex="1">
          <mxGeometry x="417.5" y="440" width="155" height="25" as="geometry" />
        </mxCell>
        <mxCell id="US-OKdlzFDQY7FfolMQk-12" style="edgeStyle=orthogonalEdgeStyle;rounded=0;orthogonalLoop=1;jettySize=auto;html=1;" edge="1" parent="1" source="hxWqqJYnxAzXDW9ncuUw-70">
          <mxGeometry relative="1" as="geometry">
            <mxPoint x="985.6300000000001" y="250" as="targetPoint" />
          </mxGeometry>
        </mxCell>
        <mxCell id="hxWqqJYnxAzXDW9ncuUw-70" value="&lt;div style=&quot;line-height: 40%;&quot;&gt;&lt;pre&gt;#4 Rebar &lt;/pre&gt;&lt;pre&gt;*See Walkway Detail&lt;/pre&gt;&lt;/div&gt;" style="text;html=1;align=left;verticalAlign=middle;whiteSpace=wrap;rounded=0;strokeColor=none;" parent="1" vertex="1">
          <mxGeometry x="920.63" y="305" width="130" height="12.5" as="geometry" />
        </mxCell>
        <mxCell id="US-OKdlzFDQY7FfolMQk-4" value="12&quot;" style="shape=dimension;direction=west;whiteSpace=wrap;html=1;align=center;points=[];verticalAlign=top;spacingTop=-15;labelBackgroundColor=none;" vertex="1" parent="1">
          <mxGeometry x="100" y="115" width="40" height="30" as="geometry" />
        </mxCell>
        <mxCell id="US-OKdlzFDQY7FfolMQk-11" style="edgeStyle=orthogonalEdgeStyle;rounded=0;orthogonalLoop=1;jettySize=auto;html=1;exitX=0.25;exitY=0;exitDx=0;exitDy=0;entryX=0.898;entryY=0.991;entryDx=0;entryDy=0;entryPerimeter=0;" edge="1" parent="1" source="LL6v63Wx8klDNPUl_Ktk-96" target="hxWqqJYnxAzXDW9ncuUw-22">
          <mxGeometry relative="1" as="geometry" />
        </mxCell>
      </root>
    </mxGraphModel>
  </diagram>
</mxfile>
